<?xml version="1.0" encoding="utf-8"?>
<!-- Generator: Adobe Illustrator 24.3.0, SVG Export Plug-In . SVG Version: 6.00 Build 0)  -->
<svg version="1.1" id="Layer_1" xmlns="http://www.w3.org/2000/svg" xmlns:xlink="http://www.w3.org/1999/xlink" x="0px" y="0px"
	 viewBox="0 0 425.197 425.197" style="enable-background:new 0 0 425.197 425.197;" xml:space="preserve">
<style type="text/css">
	.st0{fill:#557235;stroke:#557235;stroke-width:0.25;stroke-miterlimit:10;}
	.st1{fill:#FFC51D;stroke:#FFC51D;stroke-width:0.25;stroke-miterlimit:10;}
</style>
<g>
	<path class="st0" d="M10.602,132.745c0.185,0.206,51.802-62.489,111.96-68.325c7.821-0.759,25.262-2.224,43.315,7.131
		c14.475,7.501,22.367,18.342,26.5,24.159c1.947,2.74,26.431,38.317,15.112,77.478c-6.831,23.636-24.187,39.866-42.783,57.257
		c-19.138,17.898-27.798,19.621-30.118,30.757c-4.852,23.283,24.508,56.508,45.657,53.106c3.146-0.506,9.353-2.688,31.05-36.743
		c19.402-30.453,27.044-50.876,28.296-50.366c1.493,0.608-6.267,30.913-25.261,62.605c-9.228,15.398-17.443,28.807-33.4,40.923
		c-9.82,7.456-29.257,21.91-53.046,19.765c-36.718-3.311-68.477-44.93-63.217-74.764c3.309-18.768,18.063-18.875,59.173-61.248
		c43.639-44.98,46.356-65.055,46.614-74.498c0.122-4.451,0.662-24.186-12.878-41.612c-9.634-12.399-21.467-17.332-23.733-18.199
		c-18.581-7.11-35.735-1.952-47.892,1.703c-20.646,6.207-34.483,16.884-53.426,31.502C17.457,125.003,10.535,132.671,10.602,132.745
		z"/>
	<path class="st1" d="M139.237,351.038c30.378-9.55,47.989-25.646,56.332-34.602c13.755-14.764,21.019-30.216,28.451-45.944
		c8.06-17.058,12.861-32.119,15.769-42.975c6.588,4.962,19.748,16.277,28.256,35.599c9.789,22.23,7.768,42.222,6.492,50.339
		c6.414-23.641,17.819-56.467,39.165-91.526c39.48-64.845,100.894-102.438,100.894-102.438s-62.892,54.882-72.159,140.752
		c-2.861,26.509-0.065,57.301-21.924,81.522c-4.533,5.023-18.499,20.497-37.904,19.537c-1.276-0.063-16.886-1.074-27.335-13.258
		c-20.453-23.849-2.995-69.311-6.279-70.135c-2.711-0.68-6.399,30.514-25.17,50.499
		C202.389,351.231,167.073,353.288,139.237,351.038z"/>
</g>
<g>
</g>
<g>
</g>
<g>
</g>
<g>
</g>
<g>
</g>
</svg>
